<?xml version="1.0" encoding="utf-8"?>
<!-- Generator: Adobe Illustrator 22.1.0, SVG Export Plug-In . SVG Version: 6.00 Build 0)  -->
<svg version="1.1" id="Layer_1" xmlns="http://www.w3.org/2000/svg" xmlns:xlink="http://www.w3.org/1999/xlink" x="0px" y="0px"
	 viewBox="0 0 357 284" style="enable-background:new 0 0 357 284;" xml:space="preserve">
<style type="text/css">
	.st0{fill:#3AAFA9;}
	.st1{fill:#3AAFA9;}
</style>
<g>
	<path class="st0" d="M211.6,49.8c24.1-1.7,46.6,1,66.4,14.9c17.7,12.4,28.6,29,29.9,51c0.1,2.1,0.8,3.3,2.6,4.3
		c4.6,2.7,8.9,5.9,12.5,9.9c2.1,2.2,3.8,4.7,4.5,7.6c0.9,3.5-0.4,5.9-4.2,6.4c-1.5,0.2-3,0.1-4.5,0.1c-37.2,0-74.3,0.1-111.5-0.1
		c-7.7,0-13.8,2.4-19.1,8c-15.4,16.6-30.9,33.1-45.3,50.6c-4.7,5.7-9.8,10.9-16,15c-2.6,1.7-5.4,3.4-8.6,3.9c-6.4,1.2-9-1.3-7.4-7.6
		c6.4-25.8,13-51.6,19.4-77.4c0.6-2.5,1.7-3,4-3c10,0.1,20,0.1,30,0c1.5,0,3,0.1,4.5-0.3c2.8-0.7,5-2.4,4.9-5.5
		c-0.1-3.3-2.4-5-5.5-5.5c-1.5-0.2-3-0.2-4.5-0.2c-17,0-34,0-51,0c-1.3,0-2.7,0.1-4,0c-6.4-0.6-10.9-4.9-10.8-10.3
		c0.1-5.6,5-9.9,11.6-10c12.7-0.1,25.3,0,38,0c1.7,0,3.4,0.1,5-0.2c3.1-0.5,5.4-2.3,5.3-5.6c0-3.3-2.3-5-5.5-5.4
		c-1.3-0.2-2.7-0.1-4-0.1c-21.5,0-43,0-64.5,0c-8,0-13.1-4.1-13.3-10.5c-0.2-6.7,4.9-11.1,13.1-11.2c15.5-0.1,31,0,46.5,0
		c6.9,0,10-1.7,10-5.5c0.1-3.9-3-5.7-9.9-5.7c-26,0-52,0-78,0c-2.8,0-5.7-0.1-8.4-1.1c-4.8-2-7.6-6.1-7.3-10.8
		c0.2-4.6,3.5-8.7,8.4-10c2.1-0.5,4.3-0.6,6.4-0.6c33.5,0,67,0,100.5,0c37.9,0,65.3,31.9,59.6,69.2c-0.3,1.9-1.7,4.3,1,5.2
		c2.9,0.9,3.5-1.9,4.3-3.8c6.8-17.1,6-33.8-2.3-50.2C213.9,53.7,212.9,52,211.6,49.8z"/>
	<path class="st0" d="M276.1,207.4c3.8-8.3,4-8.4,13-6.9c3.8,0.6,5.8-0.3,5.1-4.7c-1.1-6.6-2.1-13.1-2.9-19.7
		c-0.3-2.6-1.4-2.8-3.6-2.2c-7.2,1.9-14.6,3.4-21.7,5.5c-9.3,2.7-17.5,1.8-25.4-4.3c-6.5-5.1-6.8-4.7-11.8,1.8
		c-7.8,10.2-15.6,20.4-23.3,30.6c-6.2,8.2-4.6,16,4.4,21.3c8.5,5,17,9.9,25.4,14.8c3.4,2,6,1.6,8.5-1.8c5.9-8.1,6-8,15.4-5
		c1.7,0.6,3.4,1.2,5.6,2c-3.2,5.5-5.7,11.2-9.6,16c-7.3,9-18.9,10.9-31.3,5.2c-10.8-4.9-21-10.9-30.9-17.2
		c-13.5-8.6-26.8-17.4-40.3-25.9c-2.8-1.8-3.2-2.9-0.9-5.5c14.2-15.9,28.4-31.8,42.4-47.8c4.4-5,9.4-7.2,16.2-7.1
		c28.7,0.2,57.3,0.2,86,0c3.4,0,4.5,0.8,5,4.2c1.9,14.7,4.3,29.3,6.2,44c1,7.3-1.7,10-9.1,8.9C291.1,212.4,283.8,209.8,276.1,207.4z
		"/>
	<path class="st0" d="M63.9,121.8c-3.2,0-6.4,0.3-9.5-0.1c-5.6-0.7-9.3-5-9.2-10.1c0.1-4.9,4.3-9.6,9.6-9.9c6.1-0.3,12.3-0.3,18.5,0
		c5.5,0.3,9.5,4.7,9.6,9.7c0.2,5.3-3.7,9.7-9.5,10.3C70.2,122.1,67,121.8,63.9,121.8C63.9,121.8,63.9,121.8,63.9,121.8z"/>
	<path class="st1" d="M41.6,68.7c5.8-0.1,10.9,5,10.9,10.8c0,5.9-4.9,10.9-10.8,10.9c-5.7,0-10.4-4.7-10.6-10.5
		C31,73.8,35.8,68.8,41.6,68.7z"/>
	<path class="st1" d="M276.4,217.8c-2.2,3.8-4.1,6.9-5.9,10c-0.8,1.4-1.5,1.7-3.2,1.1c-6.2-2.2-12.6-4-18.9-6.1
		c-1.2-0.4-2.4-1.1-3.4-1.9c-1.5-1.3-1.9-3.1-1.4-5c0.6-2.3,2.6-1.6,4.2-1.5C257.1,215.5,266.3,216.6,276.4,217.8z"/>
</g>
</svg>
